<svg xmlns="http://www.w3.org/2000/svg" viewBox="6.9899998474121094 -1.92 50.020000305175785 67.84"><path d="M54.09 58.91h-3.35A119 119 0 0 1 43.85 45H44a1 1 0 0 0 1-1v-3.09a1 1 0 0 0-1-1h-2.15c-.61-1.65-1.16-3.28-1.68-4.89h.7a1 1 0 0 0 1-1v-3.09a1 1 0 0 0-1-1h-2.18a75.9 75.9 0 0 1-2.64-18.14 1 1 0 0 0 .42-.8V7.26a1 1 0 0 0-.86-1V4.8a1 1 0 0 0-1-1H33V1a1 1 0 0 0-2 0v2.8h-1.46a1 1 0 0 0-1 1v1.48a1 1 0 0 0-.86 1V11a1 1 0 0 0 .43.79 76.3 76.3 0 0 1-2.64 18.15h-2.34a1 1 0 0 0-1 1V34a1 1 0 0 0 1 1H24c-.51 1.61-1.07 3.25-1.67 4.89H20a1 1 0 0 0-1 1V44a1 1 0 0 0 1 1h.3a121 121 0 0 1-6.88 13.91H9.91a1 1 0 0 0-1 1V63a1 1 0 0 0 1 1h44.18a1 1 0 0 0 1-1v-3.09a1 1 0 0 0-1-1m-36.15 0 2.17-1.17-.59 1.17zM30.15 48.3v-.7H31v.63zM22 53.78l-2-1.64 3.46-1.86c-.46 1.28-1.02 2.45-1.46 3.5m4.28-5 .07-.05a1 1 0 0 0 .23-.72c.05-.14.11-.27.16-.41h1.44v1.07a11.5 11.5 0 0 0-2.18.81zM33 47.6h.85v.7l-.85-.07zm2.85 0h1.46c.25.65.5 1.28.75 1.9a11.2 11.2 0 0 0-2.21-.83zm4.65 2.58 3.63 2-2.05 1.72c-.49-1.13-1.02-2.36-1.58-3.72m5.07 3.36c.75 1.5 1.43 2.78 2 3.83l-4-2.15zm-5.16-5.68 1.83-1.54c.49 1.16 1 2.27 1.46 3.32zm-1.28-1.53a1 1 0 0 0-.36-.52l-.3-.81h2.24zM36.34 45l.22.6h-.71V45zm-2.49.6H33V45h.85zm-2.85 0h-.85V45H31zm-2.85 0h-.69l.22-.6h.47zm-3.1.75L23.44 45h2.11c-.17.46-.34.9-.5 1.35m-3.13 0 1.82 1.54-3.29 1.78c.48-1.08.97-2.19 1.47-3.35zm-3.34 7.22 2 1.68-4 2.15c.57-1.08 1.25-2.4 2-3.86zm5.78-.23C26 51.25 28.52 50.2 32 50.2s6.09 1.07 7.68 3.17c1.07 2.44 2 4.34 2.58 5.54h-20.5c.6-1.21 1.53-3.12 2.6-5.6zm20.14 5.6-.64-1.27 2.36 1.27zM30.67 35.65a1.1 1.1 0 0 0 .14-.49.6.6 0 0 1 0-.14h2.32c0 .16.1.33.14.49v.06c.4 1.43.83 2.88 1.29 4.34H29.4c.45-1.43.88-2.85 1.27-4.26m-3.11 3.45-1.47-1.32 2.15-.88c-.24.73-.45 1.46-.68 2.2m8.21-2.23 2.26.91-1.55 1.36c-.24-.76-.48-1.52-.71-2.27m3.69 2.32c.08.24.16.48.25.72h-1.07zm-1.17-3.46L36.54 35h1.52c.08.25.16.49.23.73m-6.21-16-1.7-1.28L32 17.28l1.72 1.19zm0 2.4 2.46 1.68-2.46 1.75-2.46-1.75zm3.52 3.38c.2 1 .42 1.94.65 2.92l-2.32-1.73zm-1.76-4.6.86-.65c.06.46.14.92.21 1.38zm-.06-4.87.44-.31c0 .21 0 .43.05.64zm.69-6.04h-4.79V8.26h4.79zM34 12c0 .46 0 .93.05 1.39L32 14.84l-2-1.36c0-.5 0-1 .05-1.49zm-4.11 3.83.36.25-.4.28c.06-.19.07-.36.08-.54zm-.48 4.45.86.65-1.06.73c.11-.47.18-.93.24-1.39zm-.9 5.25 1.67 1.19-2.28 1.72c.24-.98.46-1.96.65-2.92zm3.53 2.29 2.83 2.12h-5.62zm-1.54-22h3.07v.46h-3.03zm-6.37 26.11h15.74V33H24.13zM27.55 35l-1.68.69c.07-.23.15-.46.22-.69zm-2.86 4.19.77.7h-1c.07-.22.15-.45.23-.68zM21 41.91h22V43H21zM53.09 62H10.91v-1.09h42.18z" fill="currentColor"></path></svg>
