<svg viewBox="0 11 60 38" xmlns="http://www.w3.org/2000/svg">
  <g fill="currentColor">
    <circle cx="3" cy="25" r="1"/>
    <circle cx="9" cy="25" r="1"/>
    <circle cx="15" cy="25" r="1"/>
    <circle cx="6" cy="28" r="1"/>
    <circle cx="12" cy="28" r="1"/>
    <circle cx="3" cy="37" r="1"/>
    <circle cx="9" cy="37" r="1"/>
    <circle cx="15" cy="37" r="1"/>
    <circle cx="6" cy="40" r="1"/>
    <circle cx="12" cy="40" r="1"/>
    <circle cx="3" cy="43" r="1"/>
    <circle cx="9" cy="43" r="1"/>
    <circle cx="15" cy="43" r="1"/>
    <circle cx="6" cy="46" r="1"/>
    <circle cx="12" cy="46" r="1"/>
    <circle cx="3" cy="31" r="1"/>
    <circle cx="9" cy="31" r="1"/>
    <circle cx="15" cy="31" r="1"/>
    <circle cx="6" cy="34" r="1"/>
    <circle cx="12" cy="34" r="1"/>
    <path d="M18.777,33.215c0.876,1.084,2.021,1.682,3.223,1.682s2.347-0.598,3.223-1.682c1.263-1.563,2.959-2.423,4.777-2.423
      s3.515,0.86,4.777,2.423c0.876,1.084,2.021,1.682,3.223,1.682s2.347-0.598,3.223-1.682c1.263-1.563,2.959-2.423,4.777-2.423
      s3.515,0.86,4.777,2.423c0.876,1.084,2.021,1.682,3.223,1.682s2.347-0.598,3.223-1.682L60,29.706V26H18v-4h-4v-5h26
      c1.303,0,2.363-1.061,2.363-2.363v-1.273C42.363,12.061,41.303,11,40,11H4.713C3.217,11,2,12.217,2,13.713V15v2v5H0v27h16h2h42
      v-9.631l-1.258,1.251C57.483,42.155,55.801,43,54,43c-1.818,0-3.515-0.86-4.777-2.423c-0.876-1.084-2.021-1.681-3.223-1.681
      s-2.347,0.597-3.223,1.681C41.515,42.14,39.818,43,38,43s-3.515-0.86-4.777-2.423c-0.876-1.084-2.021-1.681-3.223-1.681
      s-2.347,0.597-3.223,1.681C25.515,42.14,23.818,43,22,43c-1.469,0-2.854-0.57-4-1.61v-2.427c0.292,0,0.58,0.112,0.777,0.356
      C19.653,40.403,20.798,41,22,41s2.347-0.597,3.223-1.681c1.263-1.563,2.959-2.423,4.777-2.423s3.515,0.86,4.777,2.423
      C35.653,40.403,36.798,41,38,41s2.347-0.597,3.223-1.681c1.263-1.563,2.959-2.423,4.777-2.423s3.515,0.86,4.777,2.423
      C51.653,40.403,52.798,41,54,41s2.347-0.597,3.223-1.681l0.072-0.08L60,36.548v-3.619l-1.216,1.536
      c-1.27,1.57-2.966,2.432-4.784,2.432s-3.515-0.861-4.777-2.424c-0.876-1.084-2.021-1.681-3.223-1.681s-2.347,0.597-3.223,1.681
      c-1.263,1.563-2.959,2.424-4.777,2.424s-3.515-0.861-4.777-2.424c-0.876-1.084-2.021-1.681-3.223-1.681s-2.347,0.597-3.223,1.681
      c-1.263,1.563-2.959,2.424-4.777,2.424c-1.469,0-2.854-0.571-4-1.611v-2.427C18.292,32.858,18.58,32.971,18.777,33.215z M16,25v1
      v5v6v6v4h-4H6H2v-4v-6v-6v-6v-1h1h6h5h1h1V25z"/>
  </g>
</svg>
